<svg id="Camada_1" data-name="Camada 1" xmlns="http://www.w3.org/2000/svg" xmlns:xlink="http://www.w3.org/1999/xlink" viewBox="0 0 1061.35 431.97"><defs><style>.cls-1{fill:none;}.cls-2{clip-path:url(#clip-path);}.cls-3{fill:#050505;}.cls-4{fill:#f0cb46;}.cls-5{fill:#e2d105;}.cls-6{fill:#fff200;}.cls-7{stroke:#fff;stroke-miterlimit:10;}.cls-8{fill:#0f0f0f;}.cls-9{fill:#fff;}</style><clipPath id="clip-path" transform="translate(-8.11 -14.53)"><rect class="cls-1" x="0.75" y="-1" width="1077" height="484"/></clipPath></defs><title>logo</title><g class="cls-2"><path class="cls-3" d="M388.34,246c-.12-.42-.23-.85-.32-1.27a22.59,22.59,0,0,1-.47-4.1c0-.42,0-.85-.08-1.27l-9.82-100.11a17.49,17.49,0,0,0-1.7-5.89h-.48v-.76a5.87,5.87,0,0,0-1.21-2.83s.12,0,.11,0c-.23-.37-.41-.73-.66-1.09-.09-.13-.15-.26-.24-.39-.25-.33-.48-.65-.74-1-.12-.14-.23-.28-.35-.41-.26-.31-.52-.61-.8-.91l-.31-.31c-.52-.52-1.06-1-1.63-1.49l-.55-.46-.78-.57-.72-.5-.77-.49c-.28-.17-.57-.33-.86-.49l-.71-.39c-.44-.21-.89-.42-1.34-.61l-.52-.21c-.49-.19-1-.37-1.48-.52-.2-.07-.41-.12-.61-.18q-.6-.16-1.2-.3l-.66-.13c-.42-.08-.84-.14-1.27-.19l-.59-.08c-.62,0-1.24-.09-1.87-.09h0c-22.83,0-39.21,18.59-37,41.31l3.43,30.2V192h0l-3.07-1.89L267.22,153.5c-10.88-7.95-25.32-7.24-36,.12h0a3.27,3.27,0,0,0-2.29.47s-.06-.53-.08-.51c-.7.55-1.39.84-2.05,1.45-.19.17-.36.22-.55.4-.5.49-1,.91-1.47,1.43-.67.75-1.31,1.49-1.92,2.31l-87.48,118.7a31.66,31.66,0,0,0,2.8,40.85L172.47,354c23.54,26.62,56.86,53,93.77,55.22,1,.06,2.08.1,3.12.13h1.05c.68,0,1.37,0,2,0l1.26,0,1.83-.06,1.35-.08,1.73-.12,1.39-.14,1.67-.17,1.43-.19,1.6-.22,1.47-.24,1.55-.27,1.48-.3,1.51-.31,1.51-.35,1.46-.35,1.53-.4,1.41-.39,1.55-.46,1.37-.42,1.56-.52,1.32-.45,1.59-.57,1.26-.47,1.62-.64,1.19-.48,1.66-.71,1.12-.49,1.69-.77,1-.49,1.75-.86.93-.47,1.82-.94.81-.44c.63-.35,1.27-.69,1.9-1l.65-.38c.68-.38,1.35-.77,2-1.18l.44-.26,2.2-1.36.12-.07a140,140,0,0,0,28.13-23.69c19.19-21,34.73-46.15,37.93-74.92A124.27,124.27,0,0,0,388.34,246Z" transform="translate(-8.11 -14.53)"/><path class="cls-4" d="M360.48,360.77a140.33,140.33,0,0,1-28.13,23.68l-.12.08c-.73.46-1.46.91-2.2,1.35l-.44.27-2,1.18-.65.37c-.63.36-1.27.71-1.9,1.05l-.81.44-1.82.94-.93.48-1.75.85-1,.49-1.7.77-1.12.5-1.66.7-1.19.49-1.62.63-1.26.47-1.59.57-1.32.46-1.56.51-1.37.42-1.55.46-1.41.39-1.53.4-1.46.36-1.5.34-1.52.32-1.48.29-1.55.27-1.47.24-1.6.22-1.43.19c-.56.07-1.11.12-1.67.17l-1.39.14c-.57.05-1.15.08-1.73.12l-1.35.08c-.6,0-1.22.05-1.83.06-.42,0-.84,0-1.26,0-.68,0-1.36,0-2.05,0h-1.05c-1,0-2.08-.07-3.12-.13-36.91-2.18-70.23-28.6-93.77-55.21l-34.32-35.27a31.64,31.64,0,0,1-2.8-40.85l83.94-113.91c-.22.21-.44.43-.65.66-.67.75-1.31,1.5-1.92,2.32L135.34,277.87a31.66,31.66,0,0,0,2.8,40.85L172.47,354c23.54,26.62,56.86,53,93.77,55.22,1,.06,2.08.1,3.12.13h1.05c.68,0,1.37,0,2,0l1.26,0,1.83-.06,1.35-.08,1.73-.12,1.39-.14,1.67-.17,1.43-.19,1.6-.22,1.47-.24,1.55-.27,1.48-.3,1.51-.31,1.51-.35,1.46-.35,1.53-.4,1.41-.39,1.55-.46,1.37-.42,1.56-.52,1.32-.45,1.59-.57,1.26-.47,1.62-.64,1.19-.48,1.66-.71,1.12-.49,1.69-.77,1-.49,1.75-.86.93-.47,1.81-.94.82-.44c.63-.35,1.27-.69,1.9-1l.65-.38c.68-.38,1.35-.78,2-1.18l.44-.26,2.2-1.36.11-.07a139.83,139.83,0,0,0,28.14-23.69,195.18,195.18,0,0,0,12.71-15.37Q363.88,357.05,360.48,360.77Z" transform="translate(-8.11 -14.53)"/><rect class="cls-5" x="6.76" y="197.82" width="79.51" height="40.92" rx="10.08" ry="10.08" transform="translate(-148.84 82.29) rotate(-45)"/><rect class="cls-5" x="175.16" y="32.38" width="79.51" height="41.57" rx="10.08" ry="10.08" transform="translate(17.24 153) rotate(-45)"/><path class="cls-6" d="M381.33,65.5C349.61,44,288.88,12.71,229.3,36.64a65.19,65.19,0,0,0-29,23.26L151,130.59a74.76,74.76,0,0,1-21.85,20.74c-18.93,11.78-55.55,35.74-87.09,63.2C23.1,231,23,259.45,25.92,281.76c3.48,26.62,12.28,52.05,22.37,76.58a159.06,159.06,0,0,0,60.92,73.47c14.55,9.51,33.16,18.17,51.3,13.28,29.6-8,39.76-46,44.77-71.72,3.57-18.36,7.59-36.63,12.59-54.69,4.9-17.68,9.58-35.86,16.94-52.95,2.62-6.08,5.59-12.34,9.94-17.45a58,58,0,0,1,19.87-14.49c3.23-1.37,6.49-2.61,9.81-3.72,8.28-2.79,16.69-5.1,25.13-7.27,16.05-4.12,32.21-7.72,48.43-11,7.32-1.48,14.65-3,22-4.3,0,0,121-6.91,52.49-102A164.58,164.58,0,0,0,381.33,65.5Z" transform="translate(-8.11 -14.53)"/><ellipse cx="259.29" cy="100.71" rx="20.42" ry="19.74" transform="translate(-3.38 198.31) rotate(-45)"/><ellipse cx="308.9" cy="99.88" rx="20.42" ry="19.74" transform="translate(11.74 233.15) rotate(-45)"/><ellipse cx="258.45" cy="150.33" rx="20.42" ry="19.74" transform="translate(-38.71 212.24) rotate(-45)"/><ellipse cx="308.07" cy="149.49" rx="20.42" ry="19.74" transform="translate(-23.58 247.1) rotate(-45)"/><path d="M140.27,248,124.4,263.92a8.2,8.2,0,0,1-11.6.19L97.45,248.77a8.2,8.2,0,0,0-11.6.19l-7.74,7.73a8.22,8.22,0,0,0-.19,11.61l15.34,15.35a8.2,8.2,0,0,1-.19,11.6l-17.5,17.5a8.21,8.21,0,0,0-.2,11.61l9,9.05a8.21,8.21,0,0,0,11.61-.2l17.5-17.5a8.2,8.2,0,0,1,11.6-.19l15.35,15.34a8.21,8.21,0,0,0,11.61-.19l7.73-7.74a8.2,8.2,0,0,0,.19-11.6L144.67,296a8.21,8.21,0,0,1,.19-11.6l15.88-15.87a8.22,8.22,0,0,0,.19-11.61l-9.05-9A8.22,8.22,0,0,0,140.27,248Z" transform="translate(-8.11 -14.53)"/><rect x="147.47" y="25.65" width="50.35" height="89.61" rx="12.45" ry="12.45" transform="translate(-7.37 128.18) rotate(-45)"/><path class="cls-4" d="M174.51,100.58l-30-30a23.55,23.55,0,0,1,0-33.31l2.29-2.3a23.4,23.4,0,0,1,2.6-2.21,23.43,23.43,0,0,0-7.24,4.92l-2.29,2.29a23.55,23.55,0,0,0,0,33.31l30.05,30.06a23.53,23.53,0,0,0,30.71,2.21A23.54,23.54,0,0,1,174.51,100.58Z" transform="translate(-8.11 -14.53)"/><rect x="119.41" y="72.08" width="50.35" height="83.39" rx="11.86" ry="11.86" transform="translate(-46.21 121.03) rotate(-45)"/><path class="cls-4" d="M144.37,141.58l-27.21-27.21a22.45,22.45,0,0,1,0-31.75l2.4-2.4A23.11,23.11,0,0,0,117,82.36l-3.85,3.86a22.45,22.45,0,0,0,0,31.75l27.21,27.21a22.45,22.45,0,0,0,31.75,0l1.46-1.45A22.45,22.45,0,0,1,144.37,141.58Z" transform="translate(-8.11 -14.53)"/><path class="cls-7" d="M137.35,177.3h0a25.17,25.17,0,0,1-35.6,0L78.39,153.94a25.16,25.16,0,0,1,0-35.6h0a25.17,25.17,0,0,1,35.6,0l23.36,23.36A25.17,25.17,0,0,1,137.35,177.3Z" transform="translate(-8.11 -14.53)"/><path class="cls-4" d="M106.91,174.81,83.55,151.45a25.19,25.19,0,0,1,0-35.61h0a25.29,25.29,0,0,1,4.3-3.43,25.14,25.14,0,0,0-9.46,41.53l23.36,23.36a25.16,25.16,0,0,0,31.3,3.44A25.15,25.15,0,0,1,106.91,174.81Z" transform="translate(-8.11 -14.53)"/><path d="M102.47,214.43h0a25.16,25.16,0,0,1-35.6,0l-17.1-17.09a25.19,25.19,0,0,1,0-35.61h0a25.19,25.19,0,0,1,35.61,0l17.09,17.1A25.16,25.16,0,0,1,102.47,214.43Z" transform="translate(-8.11 -14.53)"/><path class="cls-4" d="M71,211.83,53.89,194.74a25.17,25.17,0,0,1,0-35.61,25.78,25.78,0,0,1,2.39-2.08,25.13,25.13,0,0,0-6.51,40.29l17.1,17.09a25.17,25.17,0,0,0,33.21,2.09A25.17,25.17,0,0,1,71,211.83Z" transform="translate(-8.11 -14.53)"/><path class="cls-8" d="M388.44,246c-.12-.42-.22-.85-.31-1.27a22.61,22.61,0,0,1-.48-4.1c0-.42,0-.85-.08-1.27-.13-1.28-.25-2.55-.38-3.83-.33-3.39-.67-6.79-1-10.18l-1.44-14.56-1.68-17q-.85-8.73-1.72-17.46-.8-8-1.58-16l-1.23-12.49c-.23-2.33-.31-4.67-.64-7-.74-5.14-1.92-10-5.4-14-.26-.31-.53-.61-.81-.91l-.34-.33c-.51-.52-1.05-1-1.6-1.47l-.56-.46c-.25-.2-.52-.38-.78-.57l-.72-.5c-.25-.17-.51-.33-.77-.49s-.57-.33-.86-.49l-.71-.39c-.44-.21-.88-.42-1.33-.61l-.53-.21c-.48-.19-1-.37-1.47-.52l-.62-.18q-.6-.16-1.2-.3l-.66-.13c-.42-.08-.84-.14-1.27-.19a5.6,5.6,0,0,0-.59-.07c-.62-.06-1.24-.1-1.87-.1-22.83,0-39.31,18.59-37.09,41.31.65,6.66,1.56,13.3,2.45,19.93.87,6.44,2.54,13.34,1.18,19.81-1.27,6-4.49,11.52-7.8,16.65-5.9,9.13-10.13,18.8-11.08,29.73-3.7,42.15,10.12,83.49,39.11,113.16a13.77,13.77,0,0,0,20.56-1.13c15.07-18.8,26.57-40.54,29.27-64.83A124.08,124.08,0,0,0,388.44,246Z" transform="translate(-8.11 -14.53)"/><path class="cls-4" d="M362,120.54c.62,0,1.24,0,1.85.1l-.39-.16c-.48-.19-1-.37-1.47-.52l-.62-.18q-.6-.16-1.2-.3l-.66-.13c-.42-.08-.84-.14-1.27-.19a5.6,5.6,0,0,0-.59-.07c-.62-.06-1.24-.1-1.87-.1-22.83,0-39.31,18.59-37.09,41.31.65,6.66,1.56,13.3,2.45,19.93.87,6.44,2.54,13.34,1.18,19.81-1.27,6-4.49,11.52-7.8,16.65-5.9,9.13-10.13,18.8-11.08,29.73a148.6,148.6,0,0,0,7.84,62.79,12.79,12.79,0,0,0,8.66,8.07l.06,0A148.12,148.12,0,0,1,309.68,248c1-10.93,5.18-20.59,11.08-29.73,3.31-5.12,6.53-10.61,7.8-16.65,1.36-6.47-.31-13.36-1.18-19.81-.89-6.63-1.8-13.26-2.45-19.92C322.71,139.14,339.2,120.54,362,120.54Z" transform="translate(-8.11 -14.53)"/><path class="cls-9" d="M396.09,323.85a11.27,11.27,0,0,1,12.81-14A64,64,0,0,0,420.25,311q17.53,0,25.87-8.3a21.06,21.06,0,0,0,5.74-10.9q1.35-6.52,1.36-22.51V120.86a11.28,11.28,0,0,1,10.3-11.22l70.8-6.45a11.32,11.32,0,0,1,12.37,11.23V291.74q0,33.21-13.77,59.15-11.48,21.58-36.72,33.51t-59.47,11.93q-5.91,0-13.91-.57a11.36,11.36,0,0,1-10.22-8.42Z" transform="translate(-8.11 -14.53)"/><path class="cls-9" d="M759.84,192.85a11.37,11.37,0,0,1-15.67,3q-21-14.06-42.1-14.05-24.41,0-41.52,16.8-20,19.31-20,49,0,28.85,19.4,48.14,16.91,16.81,38.4,16.81,2.68,0,6-.25A11.33,11.33,0,0,0,714.8,301v-5.24a11.3,11.3,0,0,0-11.34-11.27H685.14a11.29,11.29,0,0,1-11-14.05l10.94-42.82a11.32,11.32,0,0,1,11-8.5h94.82a11.3,11.3,0,0,1,11.33,11.27V365.3a11.29,11.29,0,0,1-7.12,10.47q-12.55,5-19.79,7.49a242,242,0,0,1-78,13.07Q632,396.33,589.61,354a148.57,148.57,0,0,1-33-49.19,142.52,142.52,0,0,1-11.48-56q0-41.29,22.74-78.44,22.32-36.32,58.84-54.78Q658.46,99.36,701,99.37q29.84,0,52.26,7,18.13,5.72,38.91,18.45a11.28,11.28,0,0,1,3.44,16Z" transform="translate(-8.11 -14.53)"/><path class="cls-9" d="M1058.13,389.28H987.49a11.34,11.34,0,0,1-9.61-5.31l-61.48-98c-6-9.61-20.95-5.36-20.95,6v83.17a11.3,11.3,0,0,1-10.27,11.23l-65.58,6.17a11.32,11.32,0,0,1-12.41-11.23V117.49a11.3,11.3,0,0,1,11.34-11.27h70.61a11.36,11.36,0,0,1,9.64,5.34l61.45,98.75c6,9.65,21,5.42,21-5.93V120.6a11.3,11.3,0,0,1,10.24-11.22l65.58-6.32c8.62-.87,11.42,1.92,11.42,18.65l1,256.29A11.3,11.3,0,0,1,1058.13,389.28Z" transform="translate(-8.11 -14.53)"/></g></svg>